# xmcd CD database file
#
# Track frame offsets:
#	150
#	1412
#	79191
#	123699
#	198072
#	261569
#
# Disc length: 4697 seconds
#
# Revision: 0
# Processed by: cddbd v1.5.1PL2 Copyright (c) Steve Scherf et al.
# Submitted via: CDex 1.51
#
DISCID=4c125706
DTITLE=Free Zone (Evan Parker, etc) - Appleby 2002 [CD1]
DYEAR=2003
DGENRE=Jazz
TTITLE0=Gong (for phil seamen)
TTITLE1=Whitethroat
TTITLE2=Re Eden
TTITLE3=Subject Matters
TTITLE4=Dunsany
TTITLE5=Ferber String Quartet
EXTD=YEAR: 2003
EXTT0=
EXTT1=
EXTT2=
EXTT3=
EXTT4=
EXTT5=
PLAYORDER=
